<svg xmlns="http://www.w3.org/2000/svg" viewBox="0 0 271.93 47.6"><defs><style>.cls-1{fill:#fff;}</style></defs><title>Asset 6</title><g id="Layer_2" data-name="Layer 2"><g id="Layer_1-2" data-name="Layer 1"><path class="cls-1" d="M56.67,9.12c-2.22-1-3.77-1.61-3.77-3.52,0-1.5,1.08-2.5,2.83-2.5a3.31,3.31,0,0,1,2.93,1.8l2-2.34c-1-1.43-2.77-2.23-5.17-2.23-3.6,0-6,2.25-6,5.43,0,3,1.94,4.32,5.46,6,2.05,1,3.52,1.47,3.52,3.41a2.84,2.84,0,0,1-3.13,2.94,3.56,3.56,0,0,1-3.79-2.59L49.47,18c1,2,3,3.08,5.76,3.08,4.1,0,6.56-2.43,6.56-6.12,0-2.85-1.63-4.27-5.12-5.87"/><polygon class="cls-1" points="0 0.78 11.05 0.78 11.05 3.52 3.21 3.52 3.21 8.45 11.05 8.45 11.05 11.28 3.21 11.28 3.21 20.59 0 20.59 0 0.78"/><path class="cls-1" d="M33.49,15.49H25.65l-2.3,5.1H20L29.56,0l9.58,20.59h-3.4ZM32.36,12.8l-2-4.52A17.61,17.61,0,0,1,29.59,6a15.27,15.27,0,0,1-.72,2.24l-2,4.52Z"/><polygon class="cls-1" points="74.5 0.78 77.71 0.78 77.71 8.09 87.46 8.09 87.46 0.78 90.68 0.78 90.68 20.59 87.46 20.59 87.46 10.97 77.71 10.97 77.71 20.59 74.5 20.59 74.5 0.78"/><rect class="cls-1" x="104.42" y="0.78" width="3.21" height="19.81"/><path class="cls-1" d="M138.61,18.06a10.75,10.75,0,0,1-15,0,10,10,0,0,1-3.07-7.34,10.16,10.16,0,0,1,3.07-7.37,10.82,10.82,0,0,1,15,0,10.22,10.22,0,0,1,3.1,7.37,10,10,0,0,1-3.1,7.34m-2.39-12.6a7,7,0,0,0-5.1-2.16A7.12,7.12,0,0,0,126,5.46a7.39,7.39,0,0,0-2.11,5.26A7.33,7.33,0,0,0,126,16a7.12,7.12,0,0,0,10.22,0,7.35,7.35,0,0,0,2.13-5.24,7.41,7.41,0,0,0-2.13-5.26"/><path class="cls-1" d="M154.53,0l12.58,12.11a23,23,0,0,1,2.16,2.41V.78h3V21.36L159.41,9a15.75,15.75,0,0,1-1.91-2.21V20.59h-3Z"/><path class="cls-1" d="M220.64,15.49H212.8l-2.3,5.1h-3.38L216.71,0l9.58,20.59h-3.41ZM219.5,12.8l-2-4.52A19.05,19.05,0,0,1,216.73,6,15.27,15.27,0,0,1,216,8.28l-2,4.52Z"/><polygon class="cls-1" points="263.48 20.51 266.69 16.75 266.69 3.52 269.58 3.52 271.93 0.78 271.93 0.78 258.21 0.78 258.21 3.52 263.48 3.52 263.48 20.51"/><path class="cls-1" d="M242.5,9.12c-2.21-1-3.76-1.61-3.76-3.52,0-1.5,1.08-2.5,2.82-2.5a3.31,3.31,0,0,1,2.94,1.8l2-2.34c-1-1.43-2.77-2.23-5.18-2.23-3.6,0-5.95,2.25-5.95,5.43,0,3,1.93,4.32,5.45,6,2.05,1,3.52,1.47,3.52,3.41a2.84,2.84,0,0,1-3.13,2.94,3.55,3.55,0,0,1-3.78-2.59L235.3,18c1,2,3,3.08,5.76,3.08,4.1,0,6.57-2.43,6.57-6.12,0-2.85-1.64-4.27-5.13-5.87"/><polygon class="cls-1" points="196.98 17.71 196.98 17.7 189.14 17.7 189.14 11.3 194.56 11.3 196.98 8.48 189.14 8.48 189.14 3.52 194.62 3.52 196.96 0.78 185.92 0.78 185.92 20.59 194.53 20.59 196.98 17.71"/><path class="cls-1" d="M72.57,40.56h3.77v.93H73.67v1.69h2.67v1H73.67v3.18h-1.1Z"/><path class="cls-1" d="M83.73,45.58H81.05l-.79,1.74H79.11l3.27-7,3.28,7H84.49Zm-.39-.92-.69-1.54a6.69,6.69,0,0,1-.26-.77,5.58,5.58,0,0,1-.24.77l-.7,1.54Z"/><path class="cls-1" d="M89.62,45.56a1.22,1.22,0,0,0,1.31.93,1,1,0,0,0,1.07-1c0-.67-.51-.83-1.21-1.17-1.2-.58-1.86-1-1.86-2.06a2.12,2.12,0,0,1,4-.74l-.86.45a1.12,1.12,0,0,0-1-.62.86.86,0,0,0-1,.85c0,.65.53.85,1.29,1.2,1.19.55,1.75,1,1.75,2a2,2,0,0,1-2.24,2.09A2,2,0,0,1,88.74,46Z"/><path class="cls-1" d="M97.15,40.56h1.1v2.49h3.33V40.56h1.1v6.76h-1.1V44H98.25v3.28h-1.1Z"/><path class="cls-1" d="M107.09,40.56h1.1v6.76h-1.1Z"/><path class="cls-1" d="M118.48,46.46a3.67,3.67,0,0,1-5.12,0,3.53,3.53,0,0,1,0-5,3.67,3.67,0,0,1,5.12,0A3.48,3.48,0,0,1,119.54,44,3.43,3.43,0,0,1,118.48,46.46Zm-.81-4.31a2.45,2.45,0,0,0-3.49,0,2.52,2.52,0,0,0-.72,1.8,2.48,2.48,0,0,0,.72,1.79,2.43,2.43,0,0,0,3.49,0A2.53,2.53,0,0,0,118.4,44,2.58,2.58,0,0,0,117.67,42.15Z"/><path class="cls-1" d="M123.63,40.29l4.3,4.14a7.94,7.94,0,0,1,.73.82V40.56h1v7l-4.38-4.21a5.79,5.79,0,0,1-.66-.76v4.7h-1Z"/><path class="cls-1" d="M134.06,40.56h3.77v.93h-2.67v1.7h2.67v1h-2.67v2.19h2.67v1h-3.77Z"/><path class="cls-1" d="M145.63,45.58H143l-.78,1.74H141l3.28-7,3.27,7H146.4Zm-.39-.92-.69-1.54a7,7,0,0,1-.25-.77,5.37,5.37,0,0,1-.25.77l-.69,1.54Z"/><path class="cls-1" d="M151.53,45.56a1.21,1.21,0,0,0,1.3.93,1,1,0,0,0,1.07-1c0-.67-.5-.83-1.2-1.17-1.2-.58-1.86-1-1.86-2.06a1.85,1.85,0,0,1,2-1.86,1.88,1.88,0,0,1,1.95,1.12L154,42a1.14,1.14,0,0,0-1-.62.86.86,0,0,0-1,.85c0,.65.53.85,1.29,1.2,1.19.55,1.75,1,1.75,2a2,2,0,0,1-2.24,2.09A2,2,0,0,1,150.65,46Z"/><path class="cls-1" d="M161.25,47.32h-1.09V41.49h-1.8v-.93H163v.93h-1.79Z"/><path class="cls-1" d="M166.15,46.2a.61.61,0,0,1,0,1.21.61.61,0,1,1,0-1.21Z"/><path class="cls-1" d="M174.54,41.41A2.41,2.41,0,0,0,172,44a2.37,2.37,0,0,0,2.39,2.52,3.24,3.24,0,0,0,2.18-.85v1.24a3.51,3.51,0,0,1-2.1.63,3.59,3.59,0,0,1-2.59-1,3.54,3.54,0,0,1-1-2.55,3.5,3.5,0,0,1,3.59-3.56,3.71,3.71,0,0,1,2.19.7l-.06,1.11A3.11,3.11,0,0,0,174.54,41.41Z"/><path class="cls-1" d="M186.7,46.46a3.67,3.67,0,0,1-5.12,0,3.53,3.53,0,0,1,0-5,3.67,3.67,0,0,1,5.12,0A3.48,3.48,0,0,1,187.76,44,3.43,3.43,0,0,1,186.7,46.46Zm-.81-4.31a2.41,2.41,0,0,0-1.74-.73,2.46,2.46,0,0,0-1.76.73,2.56,2.56,0,0,0-.71,1.8,2.52,2.52,0,0,0,.71,1.79,2.45,2.45,0,0,0,1.76.74,2.42,2.42,0,0,0,1.74-.74,2.53,2.53,0,0,0,.73-1.79A2.58,2.58,0,0,0,185.89,42.15Z"/><path class="cls-1" d="M197.24,43.05a3.24,3.24,0,0,1-.31.94l-1.77,3.61-1.77-3.69a4.65,4.65,0,0,1-.33-.86,5.61,5.61,0,0,1-.12.94l-.73,3.33h-1l1.6-7,2,4.25c.06.12.18.43.37.92a9.1,9.1,0,0,1,.39-.92l1.95-4.25,1.64,7h-1L197.37,44C197.34,43.86,197.31,43.56,197.24,43.05Z"/></g></g></svg>