<svg xmlns="http://www.w3.org/2000/svg" xmlns:xlink="http://www.w3.org/1999/xlink" viewBox="0 0 271.93 47.6"><defs><style>.cls-1{fill:none;}.cls-2{clip-path:url(#clip-path);}.cls-3{fill:#fff;}</style><clipPath id="clip-path" transform="translate(-32.59 -92.92)"><rect class="cls-1" width="337.22" height="226.08"/></clipPath></defs><title>Asset 7</title><g id="Layer_2" data-name="Layer 2"><g id="Layer_1-2" data-name="Layer 1"><g class="cls-2"><path class="cls-3" d="M89.26,102c-2.22-1-3.77-1.61-3.77-3.52,0-1.5,1.08-2.49,2.83-2.49a3.32,3.32,0,0,1,2.93,1.79l2-2.34c-1-1.43-2.77-2.23-5.17-2.23-3.61,0-6,2.25-6,5.44,0,3,1.94,4.32,5.46,6,2.05,1,3.52,1.47,3.52,3.41A2.84,2.84,0,0,1,88,111.07a3.56,3.56,0,0,1-3.79-2.59L82.05,111c1,2,3,3.08,5.77,3.08,4.1,0,6.56-2.43,6.56-6.12,0-2.85-1.63-4.27-5.12-5.87" transform="translate(-32.59 -92.92)"/><polygon class="cls-3" points="0 0.78 11.05 0.78 11.05 3.52 3.21 3.52 3.21 8.45 11.05 8.45 11.05 11.28 3.21 11.28 3.21 20.59 0 20.59 0 0.78"/><path class="cls-3" d="M66.08,108.41H58.24l-2.3,5.1H52.56l9.59-20.59,9.58,20.59h-3.4ZM65,105.72l-2-4.51A18.44,18.44,0,0,1,62.18,99a14.52,14.52,0,0,1-.73,2.25l-2,4.51Z" transform="translate(-32.59 -92.92)"/><polygon class="cls-3" points="74.5 0.78 77.71 0.78 77.71 8.09 87.46 8.09 87.46 0.78 90.68 0.78 90.68 20.59 87.46 20.59 87.46 10.97 77.71 10.97 77.71 20.59 74.5 20.59 74.5 0.78"/><rect class="cls-3" x="104.42" y="0.78" width="3.21" height="19.81"/><path class="cls-3" d="M171.19,111a10.76,10.76,0,0,1-15,0,10,10,0,0,1-3.07-7.35,10.16,10.16,0,0,1,3.07-7.37,10.81,10.81,0,0,1,15,0,10.2,10.2,0,0,1,3.11,7.37,10,10,0,0,1-3.11,7.35m-2.38-12.61a7,7,0,0,0-5.1-2.16,7.12,7.12,0,0,0-5.12,2.16,7.59,7.59,0,0,0,0,10.5,7.12,7.12,0,0,0,10.22,0,7.54,7.54,0,0,0,0-10.5" transform="translate(-32.59 -92.92)"/><path class="cls-3" d="M187.12,92.92,199.7,105a24.09,24.09,0,0,1,2.16,2.41V93.7h3v20.58L192,102a15.75,15.75,0,0,1-1.91-2.21v13.77h-3Z" transform="translate(-32.59 -92.92)"/><path class="cls-3" d="M253.23,108.41h-7.84l-2.3,5.1h-3.38l9.58-20.59,9.59,20.59h-3.41Zm-1.14-2.69-2-4.51a20,20,0,0,1-.75-2.25,15.9,15.9,0,0,1-.72,2.25l-2,4.51Z" transform="translate(-32.59 -92.92)"/><polygon class="cls-3" points="263.48 20.51 266.69 16.75 266.69 3.52 269.58 3.52 271.93 0.78 271.93 0.78 258.21 0.78 258.21 3.52 263.48 3.52 263.48 20.51"/><path class="cls-3" d="M275.09,102c-2.22-1-3.76-1.61-3.76-3.52,0-1.5,1.08-2.49,2.82-2.49a3.31,3.31,0,0,1,2.93,1.79l2-2.34c-1-1.43-2.78-2.23-5.18-2.23-3.6,0-5.95,2.25-5.95,5.44,0,3,1.93,4.32,5.45,6,2.05,1,3.52,1.47,3.52,3.41a2.83,2.83,0,0,1-3.13,2.94,3.57,3.57,0,0,1-3.79-2.59L267.89,111c1,2,3,3.08,5.76,3.08,4.1,0,6.57-2.43,6.57-6.12,0-2.85-1.64-4.27-5.13-5.87" transform="translate(-32.59 -92.92)"/><polygon class="cls-3" points="196.98 17.71 196.98 17.7 189.14 17.7 189.14 11.3 194.56 11.3 196.98 8.48 189.14 8.48 189.14 3.52 194.62 3.52 196.96 0.78 185.92 0.78 185.92 20.59 194.53 20.59 196.98 17.71"/></g><path class="cls-3" d="M105.16,133.48h3.77v.93h-2.68v1.69h2.68v1h-2.68v3.18h-1.09Z" transform="translate(-32.59 -92.92)"/><path class="cls-3" d="M116.31,138.5h-2.67l-.79,1.74H111.7l3.27-7,3.28,7h-1.17Zm-.38-.92-.69-1.54a5,5,0,0,1-.26-.76,4.19,4.19,0,0,1-.25.76l-.69,1.54Z" transform="translate(-32.59 -92.92)"/><path class="cls-3" d="M122.21,138.48a1.21,1.21,0,0,0,1.31.93,1,1,0,0,0,1.06-1c0-.66-.5-.83-1.2-1.17-1.2-.58-1.86-1-1.86-2.06a1.84,1.84,0,0,1,2-1.85,1.86,1.86,0,0,1,2,1.11l-.86.45a1.13,1.13,0,0,0-1-.62.86.86,0,0,0-1,.85c0,.66.53.86,1.29,1.21,1.19.54,1.75,1,1.75,2a2,2,0,0,1-2.24,2.09,2,2,0,0,1-2.14-1.53Z" transform="translate(-32.59 -92.92)"/><path class="cls-3" d="M129.74,133.48h1.1V136h3.33v-2.5h1.1v6.76h-1.1V137h-3.33v3.28h-1.1Z" transform="translate(-32.59 -92.92)"/><path class="cls-3" d="M139.68,133.48h1.1v6.76h-1.1Z" transform="translate(-32.59 -92.92)"/><path class="cls-3" d="M151.07,139.38a3.67,3.67,0,0,1-5.12,0,3.53,3.53,0,0,1,0-5,3.7,3.7,0,0,1,5.12,0,3.48,3.48,0,0,1,1.06,2.51A3.43,3.43,0,0,1,151.07,139.38Zm-.81-4.3a2.43,2.43,0,0,0-3.49,0,2.59,2.59,0,0,0,0,3.58,2.43,2.43,0,0,0,3.49,0,2.56,2.56,0,0,0,0-3.58Z" transform="translate(-32.59 -92.92)"/><path class="cls-3" d="M156.22,133.21l4.3,4.14a7.94,7.94,0,0,1,.73.82v-4.69h1v7l-4.39-4.21a5.81,5.81,0,0,1-.65-.76v4.7h-1Z" transform="translate(-32.59 -92.92)"/><path class="cls-3" d="M166.65,133.48h3.77v.93h-2.68v1.7h2.68v1h-2.68v2.19h2.68v1h-3.77Z" transform="translate(-32.59 -92.92)"/><path class="cls-3" d="M178.22,138.5h-2.68l-.78,1.74H173.6l3.28-7,3.27,7H179Zm-.39-.92-.69-1.54a6.74,6.74,0,0,1-.25-.76,5.17,5.17,0,0,1-.25.76l-.69,1.54Z" transform="translate(-32.59 -92.92)"/><path class="cls-3" d="M184.12,138.48a1.21,1.21,0,0,0,1.3.93,1,1,0,0,0,1.07-1c0-.66-.5-.83-1.2-1.17-1.2-.58-1.87-1-1.87-2.06a1.85,1.85,0,0,1,2-1.85,1.88,1.88,0,0,1,1.95,1.11l-.86.45a1.14,1.14,0,0,0-1-.62.85.85,0,0,0-1,.85c0,.66.53.86,1.29,1.21,1.19.54,1.75,1,1.75,2a2,2,0,0,1-2.25,2.09,2,2,0,0,1-2.13-1.53Z" transform="translate(-32.59 -92.92)"/><path class="cls-3" d="M193.84,140.24h-1.09v-5.83H191v-.93h4.68v.93h-1.79Z" transform="translate(-32.59 -92.92)"/><path class="cls-3" d="M198.74,139.12a.61.61,0,0,1,0,1.21.61.61,0,1,1,0-1.21Z" transform="translate(-32.59 -92.92)"/><path class="cls-3" d="M207.13,134.33a2.41,2.41,0,0,0-2.5,2.55A2.37,2.37,0,0,0,207,139.4a3.24,3.24,0,0,0,2.18-.85v1.24a3.44,3.44,0,0,1-2.1.63,3.59,3.59,0,0,1-2.59-1,3.54,3.54,0,0,1-1-2.55,3.5,3.5,0,0,1,1-2.54,3.55,3.55,0,0,1,2.56-1,3.64,3.64,0,0,1,2.19.7l-.06,1.1A3.11,3.11,0,0,0,207.13,134.33Z" transform="translate(-32.59 -92.92)"/><path class="cls-3" d="M219.29,139.38a3.67,3.67,0,0,1-5.12,0,3.53,3.53,0,0,1,0-5,3.7,3.7,0,0,1,5.12,0,3.48,3.48,0,0,1,1.06,2.51A3.43,3.43,0,0,1,219.29,139.38Zm-.81-4.3a2.39,2.39,0,0,0-1.75-.74,2.42,2.42,0,0,0-1.75.74,2.59,2.59,0,0,0,0,3.58,2.44,2.44,0,0,0,3.5,0,2.59,2.59,0,0,0,0-3.58Z" transform="translate(-32.59 -92.92)"/><path class="cls-3" d="M229.83,136a3.63,3.63,0,0,1-.31.93l-1.77,3.61L226,136.84a5.26,5.26,0,0,1-.33-.86,5.63,5.63,0,0,1-.12.93l-.73,3.33h-1l1.6-7,2,4.25c.06.12.18.43.37.92a9.1,9.1,0,0,1,.39-.92l2-4.25,1.63,7h-1L230,136.9C229.93,136.78,229.9,136.48,229.83,136Z" transform="translate(-32.59 -92.92)"/></g></g></svg>