<svg xmlns="http://www.w3.org/2000/svg" xmlns:xlink="http://www.w3.org/1999/xlink" viewBox="0 0 337.22 226.08"><defs><style>.cls-1{fill:none;}.cls-2{fill:#1d1d1b;}.cls-3{clip-path:url(#clip-path);}.cls-4{fill:#fff;}</style><clipPath id="clip-path"><rect class="cls-1" width="337.22" height="226.08"/></clipPath></defs><title>Asset 3</title><g id="Layer_2" data-name="Layer 2"><g id="Layer_1-2" data-name="Layer 1"><rect class="cls-2" width="337.22" height="226.08"/><g class="cls-3"><path class="cls-4" d="M89.26,102c-2.22-1-3.77-1.61-3.77-3.52,0-1.5,1.08-2.49,2.83-2.49a3.32,3.32,0,0,1,2.93,1.79l2-2.34c-1-1.43-2.77-2.23-5.17-2.23-3.61,0-6,2.25-6,5.44,0,3,1.94,4.32,5.46,6,2.05,1,3.52,1.47,3.52,3.41A2.84,2.84,0,0,1,88,111.07a3.56,3.56,0,0,1-3.79-2.59L82.05,111c1,2,3,3.08,5.77,3.08,4.1,0,6.56-2.43,6.56-6.12,0-2.85-1.63-4.27-5.12-5.87"/><polygon class="cls-4" points="32.59 93.7 43.64 93.7 43.64 96.44 35.8 96.44 35.8 101.37 43.64 101.37 43.64 104.2 35.8 104.2 35.8 113.51 32.59 113.51 32.59 93.7"/><path class="cls-4" d="M66.08,108.41H58.24l-2.3,5.1H52.56l9.59-20.59,9.58,20.59h-3.4ZM65,105.72l-2-4.51A18.44,18.44,0,0,1,62.18,99a14.52,14.52,0,0,1-.73,2.25l-2,4.51Z"/><polygon class="cls-4" points="107.08 93.7 110.3 93.7 110.3 101.01 120.05 101.01 120.05 93.7 123.27 93.7 123.27 113.51 120.05 113.51 120.05 103.89 110.3 103.89 110.3 113.51 107.08 113.51 107.08 93.7"/><rect class="cls-4" x="137.01" y="93.7" width="3.21" height="19.81"/><path class="cls-4" d="M171.19,111a10.76,10.76,0,0,1-15,0,10,10,0,0,1-3.07-7.35,10.16,10.16,0,0,1,3.07-7.37,10.81,10.81,0,0,1,15,0,10.2,10.2,0,0,1,3.11,7.37,10,10,0,0,1-3.11,7.35m-2.38-12.61a7,7,0,0,0-5.1-2.16,7.12,7.12,0,0,0-5.12,2.16,7.59,7.59,0,0,0,0,10.5,7.12,7.12,0,0,0,10.22,0,7.54,7.54,0,0,0,0-10.5"/><path class="cls-4" d="M187.12,92.92,199.7,105a24.09,24.09,0,0,1,2.16,2.41V93.7h3v20.58L192,102a15.75,15.75,0,0,1-1.91-2.21v13.77h-3Z"/><path class="cls-4" d="M253.23,108.41h-7.84l-2.3,5.1h-3.38l9.58-20.59,9.59,20.59h-3.41Zm-1.14-2.69-2-4.51a20,20,0,0,1-.75-2.25,15.9,15.9,0,0,1-.72,2.25l-2,4.51Z"/><polygon class="cls-4" points="296.06 113.44 299.28 109.67 299.28 96.44 302.17 96.44 304.52 93.7 304.52 93.7 290.8 93.7 290.8 96.44 296.06 96.44 296.06 113.44"/><path class="cls-4" d="M275.09,102c-2.22-1-3.76-1.61-3.76-3.52,0-1.5,1.08-2.49,2.82-2.49a3.31,3.31,0,0,1,2.93,1.79l2-2.34c-1-1.43-2.78-2.23-5.18-2.23-3.6,0-5.95,2.25-5.95,5.44,0,3,1.93,4.32,5.45,6,2.05,1,3.52,1.47,3.52,3.41a2.83,2.83,0,0,1-3.13,2.94,3.57,3.57,0,0,1-3.79-2.59L267.89,111c1,2,3,3.08,5.76,3.08,4.1,0,6.57-2.43,6.57-6.12,0-2.85-1.64-4.27-5.13-5.87"/><polygon class="cls-4" points="229.57 110.64 229.57 110.63 221.73 110.63 221.73 104.23 227.15 104.23 229.57 101.4 221.73 101.4 221.73 96.44 227.21 96.44 229.55 93.7 218.51 93.7 218.51 113.51 227.11 113.51 229.57 110.64"/></g><path class="cls-4" d="M105.16,133.48h3.77v.93h-2.68v1.69h2.68v1h-2.68v3.18h-1.09Z"/><path class="cls-4" d="M116.31,138.5h-2.67l-.79,1.74H111.7l3.27-7,3.28,7h-1.17Zm-.38-.92-.69-1.54a5,5,0,0,1-.26-.76,4.19,4.19,0,0,1-.25.76l-.69,1.54Z"/><path class="cls-4" d="M122.21,138.48a1.21,1.21,0,0,0,1.31.93,1,1,0,0,0,1.06-1c0-.66-.5-.83-1.2-1.17-1.2-.58-1.86-1-1.86-2.06a1.84,1.84,0,0,1,2-1.85,1.86,1.86,0,0,1,2,1.11l-.86.45a1.13,1.13,0,0,0-1-.62.86.86,0,0,0-1,.85c0,.66.53.86,1.29,1.21,1.19.54,1.75,1,1.75,2a2,2,0,0,1-2.24,2.09,2,2,0,0,1-2.14-1.53Z"/><path class="cls-4" d="M129.74,133.48h1.1V136h3.33v-2.5h1.1v6.76h-1.1V137h-3.33v3.28h-1.1Z"/><path class="cls-4" d="M139.68,133.48h1.1v6.76h-1.1Z"/><path class="cls-4" d="M151.07,139.38a3.67,3.67,0,0,1-5.12,0,3.53,3.53,0,0,1,0-5,3.7,3.7,0,0,1,5.12,0,3.48,3.48,0,0,1,1.06,2.51A3.43,3.43,0,0,1,151.07,139.38Zm-.81-4.3a2.43,2.43,0,0,0-3.49,0,2.59,2.59,0,0,0,0,3.58,2.43,2.43,0,0,0,3.49,0,2.56,2.56,0,0,0,0-3.58Z"/><path class="cls-4" d="M156.22,133.21l4.3,4.14a7.94,7.94,0,0,1,.73.82v-4.69h1v7l-4.39-4.21a5.81,5.81,0,0,1-.65-.76v4.7h-1Z"/><path class="cls-4" d="M166.65,133.48h3.77v.93h-2.68v1.7h2.68v1h-2.68v2.19h2.68v1h-3.77Z"/><path class="cls-4" d="M178.22,138.5h-2.68l-.78,1.74H173.6l3.28-7,3.27,7H179Zm-.39-.92-.69-1.54a6.74,6.74,0,0,1-.25-.76,5.17,5.17,0,0,1-.25.76l-.69,1.54Z"/><path class="cls-4" d="M184.12,138.48a1.21,1.21,0,0,0,1.3.93,1,1,0,0,0,1.07-1c0-.66-.5-.83-1.2-1.17-1.2-.58-1.87-1-1.87-2.06a1.85,1.85,0,0,1,2-1.85,1.88,1.88,0,0,1,1.95,1.11l-.86.45a1.14,1.14,0,0,0-1-.62.85.85,0,0,0-1,.85c0,.66.53.86,1.29,1.21,1.19.54,1.75,1,1.75,2a2,2,0,0,1-2.25,2.09,2,2,0,0,1-2.13-1.53Z"/><path class="cls-4" d="M193.84,140.24h-1.09v-5.83H191v-.93h4.68v.93h-1.79Z"/><path class="cls-4" d="M198.74,139.12a.61.61,0,0,1,0,1.21.61.61,0,1,1,0-1.21Z"/><path class="cls-4" d="M207.13,134.33a2.41,2.41,0,0,0-2.5,2.55A2.37,2.37,0,0,0,207,139.4a3.24,3.24,0,0,0,2.18-.85v1.24a3.44,3.44,0,0,1-2.1.63,3.59,3.59,0,0,1-2.59-1,3.54,3.54,0,0,1-1-2.55,3.5,3.5,0,0,1,1-2.54,3.55,3.55,0,0,1,2.56-1,3.64,3.64,0,0,1,2.19.7l-.06,1.1A3.11,3.11,0,0,0,207.13,134.33Z"/><path class="cls-4" d="M219.29,139.38a3.67,3.67,0,0,1-5.12,0,3.53,3.53,0,0,1,0-5,3.7,3.7,0,0,1,5.12,0,3.48,3.48,0,0,1,1.06,2.51A3.43,3.43,0,0,1,219.29,139.38Zm-.81-4.3a2.39,2.39,0,0,0-1.75-.74,2.42,2.42,0,0,0-1.75.74,2.59,2.59,0,0,0,0,3.58,2.44,2.44,0,0,0,3.5,0,2.59,2.59,0,0,0,0-3.58Z"/><path class="cls-4" d="M229.83,136a3.63,3.63,0,0,1-.31.93l-1.77,3.61L226,136.84a5.26,5.26,0,0,1-.33-.86,5.63,5.63,0,0,1-.12.93l-.73,3.33h-1l1.6-7,2,4.25c.06.12.18.43.37.92a9.1,9.1,0,0,1,.39-.92l2-4.25,1.63,7h-1L230,136.9C229.93,136.78,229.9,136.48,229.83,136Z"/></g></g></svg>